M48
;Layer_Color=9474304
;FILE_FORMAT=2:5
INCH,LZ
;TYPE=PLATED
T1F00S00C0.01181
T2F00S00C0.02559
T3F00S00C0.03937
T4F00S00C0.11811
;TYPE=NON_PLATED
T5F00S00C0.03543
%
T01
X0127362Y037874
X0124016Y0383268
X0129528Y0401968
Y0413779
X0148031Y0407087
X01406Y0430487
X0137008Y0436614
X0142717Y0364173
X0158661
X0162205Y037126
X018189Y0364567
X0182677Y0355512
X0174409Y035315
X0193307
X0192323Y0341339
X021811Y034252
X0229921Y035748
X0227891Y036811
X0231496Y037126
X0235827Y037559
X0245276
X0222835Y0374803
X0217323Y0373703
X0206299Y0371063
Y0359252
X0198228Y0376673
X0186221Y0376772
X0190157Y0383465
X018622Y0387794
X0188976Y0394094
X0187008Y0405118
X0169291Y0401575
X015748Y0396063
X020315Y0397244
X0202864Y0390669
X0203051Y0387303
X0206201Y040187
X0211811Y0409842
X0219488Y039685
X0217421Y0390945
X025748Y0391339
X0255512Y0359449
X0251181Y0348031
X0248425Y0323228
X0227165Y0427559
X0251107Y0448032
X0179134
X0185433Y0432283
T02
X0263779Y0435827
Y0449606
X0263386Y0471654
Y0485433
T03
X0109547Y0411437
Y0421437
Y0431437
Y0441437
Y0451437
X0130709Y046811
X016063
X0179311Y0330512
X0189311
X0199311
X0209311
X027126Y0342598
Y0352598
Y0362598
X0272047Y0382126
Y0392126
Y0402126
Y0412126
T04
X0109646Y0326378
X0271654
X0109843Y0488189
T05
X0116669Y0350296
X0148165
M30
